<?xml version="1.0" standalone="no"?>
<!DOCTYPE svg PUBLIC "-//W3C//DTD SVG 1.0//EN" "http://www.w3.org/TR/2001/REC-SVG-20010904/DTD/svg10.dtd">
<svg xmlns="http://www.w3.org/2000/svg" xmlns:xlink="http://www.w3.org/1999/xlink" id="body_1" width="175" height="131">

<g transform="matrix(0.7 0 0 0.70053476 0 0)">
	<g transform="matrix(0.71428573 0 0 0.7137405 0 0)">
		<g transform="matrix(14.555555 0 0 14.555555 43.999996 -0)">
			<g>
                <path d="M14.5 11C 14.287 11 14.08 11.026 13.878 11.062C 13.454 9.308 11.884 8 10 8C 7.791 8 6 9.791 6 12C 6 12.276 5.776 12.5 5.5 12.5C 5.224 12.5 5 12.276 5 12C 5 11.378 5.128 10.788 5.337 10.238C 4.918 10.089 4.47 10 4 10C 1.7909999 10 0 11.791 0 14C 0 16.209 1.791 18 4 18L4 18L14.5 18C 16.433 18 18 16.433 18 14.5C 18 12.566999 16.433 11 14.5 11" stroke="none" fill="#DDDCDC" fill-rule="nonzero" />
                <path d="M3.879 8.382L5.818 8.608C 5.975 8.63 6.102 8.682 6.219 8.74C 6.666 8.222 7.219 7.8009996 7.8409996 7.501C 7.778 7.181 7.755 6.85 7.804 6.509C 8.038 4.8729997 9.562 3.7319999 11.2 3.965C 12.839 4.199 13.976999 5.7209997 13.743 7.358C 13.691 7.718 13.569 8.049 13.406 8.352C 13.882 8.799 14.274 9.337 14.549 9.952001C 14.705 9.909 14.892 9.901001 15.109 9.936001L15.109 9.936001L16.991001 10.254001C 17.159 10.269001 17.314001 10.196001 17.386002 10.048C 17.456001 9.900001 17.420002 9.721001 17.296001 9.612L17.296001 9.612L15.884002 8.372001C 15.606002 8.128 15.4730015 7.8520007 15.510002 7.5950007C 15.547002 7.338001 15.751002 7.1100006 16.087002 6.954001L16.087002 6.954001L17.789001 6.159001C 17.938002 6.0890007 18.023 5.928001 17.997002 5.765001C 17.970001 5.6020007 17.844002 5.476001 17.677002 5.4570007L17.677002 5.4570007L15.737001 5.231001C 15.363002 5.178001 15.090001 5.015001 14.968001 4.771001C 14.854001 4.5440006 14.881001 4.256001 15.045001 3.9570007L15.045001 3.9570007L15.919001 2.3540006C 15.998001 2.2110004 15.972001 2.0330005 15.857 1.9170005C 15.745 1.8020005 15.567 1.7750006 15.423 1.8520005L15.423 1.8520005L13.769 2.7350006C 13.109 3.0890007 12.484 2.8040006 12.37 2.0850005L12.37 2.0850005L12.082 0.28300047C 12.031 -0.036999524 11.524 -0.10999954 11.386 0.18400046L11.386 0.18400046L10.606999 1.8320005C 10.294999 2.4910004 9.617 2.5910006 9.08 2.0660005L9.08 2.0660005L7.74 0.7540004C 7.621 0.641 7.442 0.617 7.301 0.696C 7.158 0.77599996 7.083 0.939 7.119 1.098L7.119 1.098L7.51 2.882C 7.583 3.215 7.528 3.5 7.357 3.685C 7.172 3.885 6.864 3.965 6.447 3.905L6.447 3.905L6.444 3.905L4.5649996 3.585C 4.4 3.557 4.241 3.642 4.17 3.792C 4.1 3.94 4.137 4.119 4.26 4.228L4.26 4.228L5.672 5.4680004C 5.949 5.7120004 6.081 5.9880004 6.045 6.2450004C 6.009 6.501 5.804 6.729 5.469 6.885L5.469 6.885L3.767 7.68C 3.6169999 7.75 3.532 7.911 3.5579998 8.073C 3.585 8.236 3.714 8.348 3.879 8.382" stroke="none" fill="#C88C32" fill-rule="nonzero" />
			</g>
		</g>
	</g>
</g>
</svg>