<?xml version="1.0" standalone="no"?>
<!DOCTYPE svg PUBLIC "-//W3C//DTD SVG 1.0//EN" "http://www.w3.org/TR/2001/REC-SVG-20010904/DTD/svg10.dtd">
<svg xmlns="http://www.w3.org/2000/svg" xmlns:xlink="http://www.w3.org/1999/xlink" id="body_1" width="271" height="100">

<defs>
                <clipPath  id="1">

                    <path clip-rule="evenodd" d="M231 25L248.19922 25L248.19922 69L231 69L231 25z" />                </clipPath>
                <clipPath  id="2">

                    <path clip-rule="evenodd" d="M151 0L227 0L227 91.53125L151 91.53125L151 0z" />                </clipPath>
</defs>

<g transform="matrix(0.5705263 0 0 0.57142866 0 0)">
	<g transform="matrix(1.9119414 0 0 1.9119414 0.22806704 -0)">
		<g>
            <path d="M26.09375 40.726562L8.65625 40.726562L8.65625 22.9375L0 22.9375L0 67.59375L8.65625 67.59375L8.65625 48.964844L26.09375 48.964844L26.09375 67.59375L34.75 67.59375L34.75 22.9375L26.09375 22.9375L26.09375 40.726562" stroke="none" fill="#485661" fill-rule="nonzero" />
            <path d="M93.08203 60.26172C 87.99219 60.26172 83.72656 55.75 83.72656 50.257812C 83.72656 44.69922 87.92578 40.253906 93.08203 40.253906C 98.046875 40.253906 102.3125 44.83203 102.3125 50.191406C 102.3125 55.683594 98.109375 60.26172 93.08203 60.26172zM93.52734 32.80078C 89.64453 32.80078 86.65625 34.109375 84.234375 36.984375L84.234375 36.984375L84.234375 22.144531L76.66016 22.144531L76.66016 44.69922C 76.66016 52.285156 76.72656 53.19922 77.80859 56.46875C 79.97266 63.140625 86.21094 67.71484 93.21094 67.71484C 102.75781 67.71484 110.140625 60.066406 110.140625 50.257812C 110.140625 40.648438 102.69141 32.80078 93.52734 32.80078" stroke="none" fill="#485661" fill-rule="nonzero" />
            <path d="M163.45312 60.46875C 158.30078 60.46875 154.09766 56.023438 154.09766 50.464844C 154.09766 44.972656 158.36328 40.460938 163.45312 40.460938C 168.48047 40.460938 172.6836 45.039062 172.6836 50.53125C 172.6836 55.890625 168.41797 60.46875 163.45312 60.46875zM163.58203 33.007812C 156.58203 33.007812 150.34375 37.585938 148.17969 44.253906C 147.09766 47.523438 147.03516 48.4375 147.03516 56.023438L147.03516 56.023438L147.03516 78.58203L154.60938 78.58203L154.60938 63.73828C 157.02734 66.61328 160.01953 67.921875 163.89844 67.921875C 173.0625 67.921875 180.51172 60.078125 180.51172 50.464844C 180.51172 40.65625 173.1289 33.007812 163.58203 33.007812" stroke="none" fill="#485661" fill-rule="nonzero" />
            <path d="M129.83203 40.566406L125.97266 39.242188C 123.921875 38.51172 122.61328 36.921875 122.61328 34.9375C 122.61328 32.285156 124.85547 30.433594 128.27734 30.433594C 130.89062 30.433594 132.50781 31.226562 134.8711 33.54297L134.8711 33.54297L135.74219 34.40625L141.40625 28.511719C 136.98828 23.277344 134.3125 21.953125 128.02734 21.953125C 119.875 21.953125 113.96484 27.585938 113.96484 35.33203C 113.96484 41.359375 117.38672 45.796875 123.796875 47.984375L123.796875 47.984375L127.09375 49.109375C 131.88672 50.765625 133.1914 52.023438 133.1914 54.67578C 133.1914 57.71875 130.70312 59.773438 127.09375 59.773438C 123.671875 59.773438 121.18359 58.316406 118.75391 54.871094L118.75391 54.871094L113.09375 61.03125C 117.63672 66.79297 120.62109 68.31641 127.28125 68.31641C 135.6836 68.31641 141.84375 62.48828 141.84375 54.476562C 141.84375 47.585938 138.23438 43.414062 129.83203 40.566406" stroke="none" fill="#485661" fill-rule="nonzero" />
			<g clip-path="url(#1)" >
                <path d="M245.27344 60.48047C 240.17969 60.48047 238.58984 59.140625 238.58984 54.71875L238.58984 54.71875L238.58984 41.91797L246.16406 41.91797L246.16406 34.55078L238.58984 34.55078L238.58984 25.027344L231.01562 28.980469L231.01562 54.71875C 231.01562 64.23047 234.64453 68.31641 243.04297 68.31641C 244.0625 68.31641 244.57031 68.25 246.16406 68.18359L246.16406 68.18359L248.19922 60.14453C 246.80078 60.414062 246.22656 60.48047 245.27344 60.48047" stroke="none" fill="#485661" fill-rule="nonzero" />
			</g>
            <path d="M62.617188 53.507812C 62.617188 57.375 59.484375 60.507812 55.617188 60.507812L55.617188 60.507812L55.242188 60.507812C 51.378906 60.507812 48.242188 57.375 48.242188 53.507812L48.242188 53.507812L48.242188 33.882812L40.367188 33.882812L40.367188 53.714844C 40.367188 61.44922 46.63672 67.71484 54.367188 67.71484L54.367188 67.71484L56.242188 67.71484C 63.976562 67.71484 70.24219 61.44922 70.24219 53.714844L70.24219 53.714844L70.24219 33.882812L62.617188 33.882812L62.617188 53.507812" stroke="none" fill="#485661" fill-rule="nonzero" />
			<g clip-path="url(#2)" >
                <path d="M205.92969 63.01953C 199.17578 63.01953 193.69922 57.54297 193.69922 50.789062C 193.69922 44.035156 199.17578 38.558594 205.92969 38.558594C 212.6875 38.558594 218.16016 44.035156 218.16016 50.789062C 218.16016 57.54297 212.6875 63.01953 205.92969 63.01953zM208.13281 29.972656L208.13281 20.257812C 211.48828 19.328125 213.96094 16.257812 213.96094 12.601563C 213.96094 8.207031 210.39844 4.648438 206.00781 4.648438C 201.61328 4.648438 198.05469 8.207031 198.05469 12.601563C 198.05469 15.976563 200.16016 18.855469 203.13281 20.007812L203.13281 20.007812L203.13281 29.972656C 200.39062 30.300781 197.8125 31.148438 195.5039 32.429688L195.5039 32.429688L168.30078 11.976563C 168.71094 10.964844 168.9414 9.859375 168.9414 8.699219C 168.9414 3.894531 165.04688 -0.00390625 160.23828 -0.00390625C 155.4336 -0.00390625 151.53516 3.894531 151.53516 8.699219C 151.53516 13.507813 155.4336 17.402344 160.23828 17.402344C 162.0664 17.402344 163.76172 16.835938 165.16406 15.875L165.16406 15.875L191.29297 35.51953C 187.24219 39.335938 184.69922 44.73828 184.69922 50.742188C 184.69922 58.253906 188.66406 64.82031 194.60547 68.51172L194.60547 68.51172L188.1289 78.82031C 187.89062 78.79297 187.64453 78.77344 187.39844 78.77344C 183.8789 78.77344 181.01953 81.62891 181.01953 85.15234C 181.01953 88.67578 183.8789 91.53125 187.39844 91.53125C 190.92188 91.53125 193.77734 88.67578 193.77734 85.15234C 193.77734 83.703125 193.28906 82.375 192.47656 81.30469L192.47656 81.30469L199.17188 70.64844C 201.20703 71.30859 203.375 71.67578 205.63281 71.67578C 217.1914 71.67578 226.5625 62.304688 226.5625 50.742188C 226.5625 40.03125 218.51172 31.210938 208.13281 29.972656" stroke="none" fill="#EF6E23" fill-rule="nonzero" />
			</g>
            <path d="M156.66406 6.214844C 155.82812 7.640625 154.66406 8.53125 154.0625 8.203125C 153.46484 7.875 153.64844 6.449219 154.48438 5.023438C 155.32031 3.597656 156.48828 2.707031 157.08984 3.035156C 157.6875 3.363281 157.5 4.785156 156.66406 6.214844" stroke="none" fill="#FFDCA5" fill-rule="nonzero" />
            <path d="M206.14453 6.636719C 207.86719 6.796875 209.09766 7.453125 208.89062 8.109375C 208.6836 8.757813 207.11328 9.160156 205.39062 9.003906C 203.66406 8.84375 202.4336 8.183594 202.64062 7.53125C 202.85156 6.878906 204.41797 6.480469 206.14453 6.636719" stroke="none" fill="#FFDCA5" fill-rule="nonzero" />
            <path d="M184.1836 81.234375C 185.4375 80.04297 186.74219 79.55469 187.09375 80.140625C 187.44922 80.72656 186.71875 82.171875 185.46094 83.36328C 184.20312 84.55469 182.89844 85.046875 182.54688 84.45703C 182.1914 83.87109 182.92578 82.42578 184.1836 81.234375" stroke="none" fill="#FFDCA5" fill-rule="nonzero" />
		</g>
	</g>
</g>
</svg>